<?xml version="1.0" encoding="UTF-8" standalone="no"?>
<!--part of the matt icon theme by sixsixfive released under CC0 (https://creativecommons.org/publicdomain/zero/1.0/) on openclipart-->

<svg
   viewBox="0 0 70 96.249978"
   version="1.1"
   id="svg25"
   sodipodi:docname="spreadsheet.svg"
   inkscape:version="1.2.2 (b0a8486541, 2022-12-01)"
   width="70"
   height="96.25"
   xmlns:inkscape="http://www.inkscape.org/namespaces/inkscape"
   xmlns:sodipodi="http://sodipodi.sourceforge.net/DTD/sodipodi-0.dtd"
   xmlns:xlink="http://www.w3.org/1999/xlink"
   xmlns="http://www.w3.org/2000/svg"
   xmlns:svg="http://www.w3.org/2000/svg">
  <sodipodi:namedview
     id="namedview27"
     pagecolor="#ffffff"
     bordercolor="#666666"
     borderopacity="1.0"
     inkscape:showpageshadow="2"
     inkscape:pageopacity="0.0"
     inkscape:pagecheckerboard="0"
     inkscape:deskcolor="#d1d1d1"
     showgrid="false"
     inkscape:zoom="8.5818185"
     inkscape:cx="34.957626"
     inkscape:cy="48.124998"
     inkscape:window-width="1920"
     inkscape:window-height="1029"
     inkscape:window-x="0"
     inkscape:window-y="27"
     inkscape:window-maximized="1"
     inkscape:current-layer="svg25" />
  <defs
     id="0">
    <linearGradient
       id="2">
      <stop
         id="F"
         stop-color="#eee" />
      <stop
         offset="1"
         id="G"
         stop-color="#d2d2d2" />
    </linearGradient>
    <linearGradient
       id="3">
      <stop
         id="H" />
      <stop
         offset="1"
         id="I"
         stop-opacity="0.536" />
    </linearGradient>
    <linearGradient
       id="4">
      <stop
         id="J" />
      <stop
         offset="1"
         id="K"
         stop-color="#ddd"
         stop-opacity="0" />
    </linearGradient>
    <filter
       id="5"
       x="-0.14513263"
       width="1.2902653"
       y="-0.17041424"
       height="1.3408285">
      <feGaussianBlur
         stdDeviation="1.81881"
         id="L" />
    </filter>
    <filter
       id="6"
       x="-0.069831289"
       y="-0.052595388"
       width="1.1396626"
       height="1.1051908">
      <feGaussianBlur
         stdDeviation="2.58594"
         id="M" />
    </filter>
    <radialGradient
       xlink:href="#2"
       r="44.419998"
       cy="100.32"
       cx="81.790001"
       gradientTransform="matrix(1.6354456,-1.3042301,1.4514753,1.8200842,-239.38158,21.515822)"
       gradientUnits="userSpaceOnUse"
       id="7" />
    <radialGradient
       xlink:href="#3"
       r="18.278999"
       cy="22.254"
       cx="89.510002"
       gradientTransform="matrix(1,0,0,0.97467889,0,0.43910718)"
       gradientUnits="userSpaceOnUse"
       id="8" />
    <linearGradient
       xlink:href="#4"
       y2="25.1"
       x2="86.82"
       y1="14.793"
       x1="98.330002"
       gradientTransform="matrix(0.7898308,0,0,0.7898308,-10.968771,2.0869896)"
       gradientUnits="userSpaceOnUse"
       id="9" />
    <mask
       id="mask-2"
       fill="#ffffff">
      <path
         d="M 29.583333,0 H 4.4375 C 1.996875,0 0,1.996875 0,4.4375 v 56.208333 c 0,2.440625 1.996875,4.4375 4.4375,4.4375 h 38.458333 c 2.440625,0 4.4375,-1.996875 4.4375,-4.4375 V 17.75 Z"
         id="use25" />
    </mask>
    <mask
       id="mask-4"
       fill="#ffffff">
      <path
         d="M 29.583333,0 H 4.4375 C 1.996875,0 0,1.996875 0,4.4375 v 56.208333 c 0,2.440625 1.996875,4.4375 4.4375,4.4375 h 38.458333 c 2.440625,0 4.4375,-1.996875 4.4375,-4.4375 V 17.75 Z"
         id="use31" />
    </mask>
    <linearGradient
       x1="0.50005394"
       y1="0.085861064"
       x2="0.50005394"
       y2="1.0001394"
       id="linearGradient-7"
       gradientUnits="userSpaceOnUse">
      <stop
         stop-color="#263238"
         stop-opacity="0.2"
         offset="0%"
         id="stop9" />
      <stop
         stop-color="#263238"
         stop-opacity="0.02"
         offset="100%"
         id="stop11" />
    </linearGradient>
    <mask
       id="mask-6"
       fill="#ffffff">
      <path
         d="M 29.583333,0 H 4.4375 C 1.996875,0 0,1.996875 0,4.4375 v 56.208333 c 0,2.440625 1.996875,4.4375 4.4375,4.4375 h 38.458333 c 2.440625,0 4.4375,-1.996875 4.4375,-4.4375 V 17.75 Z"
         id="use39" />
    </mask>
    <mask
       id="mask-9"
       fill="#ffffff">
      <path
         d="M 29.583333,0 H 4.4375 C 1.996875,0 0,1.996875 0,4.4375 v 56.208333 c 0,2.440625 1.996875,4.4375 4.4375,4.4375 h 38.458333 c 2.440625,0 4.4375,-1.996875 4.4375,-4.4375 V 17.75 Z"
         id="use48" />
    </mask>
    <mask
       id="mask-11"
       fill="#ffffff">
      <path
         d="M 29.583333,0 H 4.4375 C 1.996875,0 0,1.996875 0,4.4375 v 56.208333 c 0,2.440625 1.996875,4.4375 4.4375,4.4375 h 38.458333 c 2.440625,0 4.4375,-1.996875 4.4375,-4.4375 V 17.75 Z"
         id="use60" />
    </mask>
    <mask
       id="mask-13"
       fill="#ffffff">
      <path
         d="M 29.583333,0 H 4.4375 C 1.996875,0 0,1.996875 0,4.4375 v 56.208333 c 0,2.440625 1.996875,4.4375 4.4375,4.4375 h 38.458333 c 2.440625,0 4.4375,-1.996875 4.4375,-4.4375 V 17.75 Z"
         id="use69" />
    </mask>
    <mask
       id="mask-15"
       fill="#ffffff">
      <path
         d="M 29.583333,0 H 4.4375 C 1.996875,0 0,1.996875 0,4.4375 v 56.208333 c 0,2.440625 1.996875,4.4375 4.4375,4.4375 h 38.458333 c 2.440625,0 4.4375,-1.996875 4.4375,-4.4375 V 17.75 Z"
         id="use78" />
    </mask>
    <radialGradient
       cx="1.7583691"
       cy="1.5082694"
       fx="1.7583691"
       fy="1.5082694"
       r="89.498169"
       gradientTransform="scale(0.85280286,1.1726039)"
       id="radialGradient-16"
       gradientUnits="userSpaceOnUse">
      <stop
         stop-color="#FFFFFF"
         stop-opacity="0.1"
         offset="0%"
         id="stop18" />
      <stop
         stop-color="#FFFFFF"
         stop-opacity="0"
         offset="100%"
         id="stop20" />
    </radialGradient>
    <linearGradient
       inkscape:collect="always"
       xlink:href="#linearGradient-7"
       id="linearGradient2684"
       gradientUnits="userSpaceOnUse"
       x1="0.50005394"
       y1="0.085861064"
       x2="0.50005394"
       y2="1.0001394" />
    <radialGradient
       inkscape:collect="always"
       xlink:href="#radialGradient-16"
       id="radialGradient2686"
       gradientUnits="userSpaceOnUse"
       gradientTransform="scale(0.85280286,1.1726039)"
       cx="1.7583691"
       cy="1.5082694"
       fx="1.7583691"
       fy="1.5082694"
       r="89.498169" />
  </defs>
  <g
     id="Page-1"
     stroke="none"
     stroke-width="1"
     fill="none"
     fill-rule="evenodd"
     transform="matrix(1.4788732,0,0,1.4788732,-1.2323882,-1.4172515)"
     style="stroke-width:1.00008574;stroke-dasharray:none">
    <g
       id="Consumer-Apps-Sheets-Large-VD-R8-"
       transform="translate(-451,-451)"
       style="stroke-width:1.00008574;stroke-dasharray:none">
      <g
         id="Hero"
         transform="translate(0,63)"
         style="stroke-width:1.00008574;stroke-dasharray:none">
        <g
           id="Personal"
           transform="translate(277,299)"
           style="stroke-width:1.00008574;stroke-dasharray:none">
          <g
             id="Sheets-icon"
             transform="translate(174.83333,89.958333)"
             style="stroke-width:1.00008574;stroke-dasharray:none">
            <g
               id="g87"
               style="stroke-width:1.00008574;stroke-dasharray:none">
              <g
                 id="Clipped"
                 style="stroke-width:1.00008574;stroke-dasharray:none">
                <mask
                   id="mask271"
                   fill="#ffffff">
                  <path
                     d="M 29.583333,0 H 4.4375 C 1.996875,0 0,1.996875 0,4.4375 v 56.208333 c 0,2.440625 1.996875,4.4375 4.4375,4.4375 h 38.458333 c 2.440625,0 4.4375,-1.996875 4.4375,-4.4375 V 17.75 Z"
                     id="use269" />
                </mask>
                <g
                   id="SVGID_1_"
                   style="stroke-width:1.00008574;stroke-dasharray:none" />
                <path
                   d="M 29.583333,0 H 4.4375 C 1.996875,0 0,1.996875 0,4.4375 v 56.208333 c 0,2.440625 1.996875,4.4375 4.4375,4.4375 h 38.458333 c 2.440625,0 4.4375,-1.996875 4.4375,-4.4375 V 17.75 L 36.979167,10.354167 Z"
                   id="Path"
                   fill="#0f9d58"
                   fill-rule="nonzero"
                   mask="url(#mask-2)"
                   style="stroke-width:1.00008574;stroke-dasharray:none" />
              </g>
              <g
                 id="g37"
                 style="stroke-width:1.00008574;stroke-dasharray:none">
                <mask
                   id="mask278"
                   fill="#ffffff">
                  <path
                     d="M 29.583333,0 H 4.4375 C 1.996875,0 0,1.996875 0,4.4375 v 56.208333 c 0,2.440625 1.996875,4.4375 4.4375,4.4375 h 38.458333 c 2.440625,0 4.4375,-1.996875 4.4375,-4.4375 V 17.75 Z"
                     id="use276" />
                </mask>
                <g
                   id="g34"
                   style="stroke-width:1.00008574;stroke-dasharray:none" />
                <path
                   d="M 11.833333,31.802083 V 53.25 H 35.5 V 31.802083 Z M 22.1875,50.291667 H 14.791667 V 46.59375 H 22.1875 Z m 0,-5.916667 H 14.791667 V 40.677083 H 22.1875 Z m 0,-5.916667 H 14.791667 V 34.760417 H 22.1875 Z M 32.541667,50.291667 H 25.145833 V 46.59375 h 7.395834 z m 0,-5.916667 h -7.395834 v -3.697917 h 7.395834 z m 0,-5.916667 h -7.395834 v -3.697916 h 7.395834 z"
                   id="Shape"
                   fill="#f1f1f1"
                   fill-rule="nonzero"
                   mask="url(#mask-4)"
                   style="stroke-width:1.00008574;stroke-dasharray:none" />
              </g>
              <g
                 id="g46"
                 style="stroke-width:1.00008574;stroke-dasharray:none">
                <mask
                   id="mask285"
                   fill="#ffffff">
                  <path
                     d="M 29.583333,0 H 4.4375 C 1.996875,0 0,1.996875 0,4.4375 v 56.208333 c 0,2.440625 1.996875,4.4375 4.4375,4.4375 h 38.458333 c 2.440625,0 4.4375,-1.996875 4.4375,-4.4375 V 17.75 Z"
                     id="use283" />
                </mask>
                <g
                   id="g42"
                   style="stroke-width:1.00008574;stroke-dasharray:none" />
                <polygon
                   id="polygon44"
                   fill="url(#linearGradient-7)"
                   fill-rule="nonzero"
                   mask="url(#mask-6)"
                   points="30.881302,16.452031 47.333333,32.900365 47.333333,17.75 "
                   style="fill:url(#linearGradient2684);stroke-width:1.00008574;stroke-dasharray:none" />
              </g>
              <g
                 id="g58"
                 style="stroke-width:1.00008574;stroke-dasharray:none">
                <mask
                   id="mask292"
                   fill="#ffffff">
                  <path
                     d="M 29.583333,0 H 4.4375 C 1.996875,0 0,1.996875 0,4.4375 v 56.208333 c 0,2.440625 1.996875,4.4375 4.4375,4.4375 h 38.458333 c 2.440625,0 4.4375,-1.996875 4.4375,-4.4375 V 17.75 Z"
                     id="use290" />
                </mask>
                <g
                   id="g51"
                   style="stroke-width:1.00008574;stroke-dasharray:none" />
                <g
                   id="Group"
                   mask="url(#mask-9)"
                   style="stroke-width:1.00008574;stroke-dasharray:none">
                  <g
                     transform="translate(26.625,-2.958333)"
                     id="g55"
                     style="stroke-width:1.00008574;stroke-dasharray:none">
                    <path
                       d="M 2.9583333,2.9583333 V 16.270833 c 0,2.451719 1.9857813,4.4375 4.4375,4.4375 H 20.708333 Z"
                       id="path53"
                       fill="#87ceac"
                       fill-rule="nonzero"
                       style="stroke-width:1.00008574;stroke-dasharray:none" />
                  </g>
                </g>
              </g>
              <g
                 id="g67"
                 style="stroke-width:1.00008574;stroke-dasharray:none">
                <mask
                   id="mask301"
                   fill="#ffffff">
                  <path
                     d="M 29.583333,0 H 4.4375 C 1.996875,0 0,1.996875 0,4.4375 v 56.208333 c 0,2.440625 1.996875,4.4375 4.4375,4.4375 h 38.458333 c 2.440625,0 4.4375,-1.996875 4.4375,-4.4375 V 17.75 Z"
                     id="use299" />
                </mask>
                <g
                   id="g63"
                   style="stroke-width:1.00008574;stroke-dasharray:none" />
                <path
                   d="M 4.4375,0 C 1.996875,0 0,1.996875 0,4.4375 V 4.8072917 C 0,2.3666667 1.996875,0.36979167 4.4375,0.36979167 H 29.583333 V 0 Z"
                   id="path65"
                   fill-opacity="0.2"
                   fill="#ffffff"
                   fill-rule="nonzero"
                   mask="url(#mask-11)"
                   style="stroke-width:1.00008574;stroke-dasharray:none" />
              </g>
              <g
                 id="g76"
                 style="stroke-width:1.00008574;stroke-dasharray:none">
                <mask
                   id="mask308"
                   fill="#ffffff">
                  <path
                     d="M 29.583333,0 H 4.4375 C 1.996875,0 0,1.996875 0,4.4375 v 56.208333 c 0,2.440625 1.996875,4.4375 4.4375,4.4375 h 38.458333 c 2.440625,0 4.4375,-1.996875 4.4375,-4.4375 V 17.75 Z"
                     id="use306" />
                </mask>
                <g
                   id="g72"
                   style="stroke-width:1.00008574;stroke-dasharray:none" />
                <path
                   d="M 42.895833,64.713542 H 4.4375 C 1.996875,64.713542 0,62.716667 0,60.276042 v 0.369791 c 0,2.440625 1.996875,4.4375 4.4375,4.4375 h 38.458333 c 2.440625,0 4.4375,-1.996875 4.4375,-4.4375 v -0.369791 c 0,2.440625 -1.996875,4.4375 -4.4375,4.4375 z"
                   id="path74"
                   fill-opacity="0.2"
                   fill="#263238"
                   fill-rule="nonzero"
                   mask="url(#mask-13)"
                   style="stroke-width:1.00008574;stroke-dasharray:none" />
              </g>
              <g
                 id="g85"
                 style="stroke-width:1.00008574;stroke-dasharray:none">
                <mask
                   id="mask315"
                   fill="#ffffff">
                  <path
                     d="M 29.583333,0 H 4.4375 C 1.996875,0 0,1.996875 0,4.4375 v 56.208333 c 0,2.440625 1.996875,4.4375 4.4375,4.4375 h 38.458333 c 2.440625,0 4.4375,-1.996875 4.4375,-4.4375 V 17.75 Z"
                     id="use313" />
                </mask>
                <g
                   id="g81"
                   style="stroke-width:1.00008574;stroke-dasharray:none" />
                <path
                   d="m 34.020833,17.75 c -2.451718,0 -4.4375,-1.985781 -4.4375,-4.4375 v 0.369792 c 0,2.451718 1.985782,4.4375 4.4375,4.4375 h 13.3125 V 17.75 Z"
                   id="path83"
                   fill-opacity="0.1"
                   fill="#263238"
                   fill-rule="nonzero"
                   mask="url(#mask-15)"
                   style="stroke-width:1.00008574;stroke-dasharray:none" />
              </g>
            </g>
            <path
               d="M 29.583333,0 H 4.4375 C 1.996875,0 0,1.996875 0,4.4375 v 56.208333 c 0,2.440625 1.996875,4.4375 4.4375,4.4375 h 38.458333 c 2.440625,0 4.4375,-1.996875 4.4375,-4.4375 V 17.75 Z"
               id="path89"
               fill="url(#radialGradient-16)"
               fill-rule="nonzero"
               style="fill:url(#radialGradient2686);stroke-width:1.00008574;stroke-dasharray:none" />
          </g>
        </g>
      </g>
    </g>
  </g>
</svg>
